<svg width="396" height="432" viewBox="0 0 396 432" fill="none" xmlns="http://www.w3.org/2000/svg">
<path d="M94.9575 365.094L66 144H330L301.042 365.094C299.918 373.672 295.996 381.521 289.994 387.198C283.993 392.875 276.316 396 268.372 396H127.627C119.684 396 112.007 392.875 106.006 387.198C100.004 381.521 96.0815 373.672 94.9575 365.094ZM346.5 72H264V54C264 49.2261 262.262 44.6477 259.167 41.2721C256.073 37.8964 251.876 36 247.5 36H148.5C144.124 36 139.927 37.8964 136.833 41.2721C133.738 44.6477 132 49.2261 132 54V72H49.5C45.1239 72 40.9271 73.8964 37.8327 77.2721C34.7384 80.6477 33 85.2261 33 90C33 94.7739 34.7384 99.3523 37.8327 102.728C40.9271 106.104 45.1239 108 49.5 108H346.5C350.876 108 355.073 106.104 358.167 102.728C361.262 99.3523 363 94.7739 363 90C363 85.2261 361.262 80.6477 358.167 77.2721C355.073 73.8964 350.876 72 346.5 72Z" fill="black"/>
</svg>
