<svg width="393" height="403" viewBox="0 0 393 403" fill="none" xmlns="http://www.w3.org/2000/svg">
<path d="M377.401 121.402L377.439 121.864L377.506 122.323C377.724 123.833 379.576 138.216 374.335 162.684L374.334 162.689C366.794 197.934 349.396 229.949 324.029 255.323L195.414 381.868L69.0189 255.364L69.0108 255.356C43.6225 229.984 26.2088 197.947 18.6645 162.688L18.6639 162.685C13.4203 138.199 15.2779 123.825 15.4954 122.35L15.5657 121.873L15.6053 121.392C20.9338 56.6227 61.5066 15 107.007 15C137.269 15 165.314 32.7985 182.16 64.5909L195.27 89.3312L208.604 64.7117C225.537 33.449 254.946 15.0083 285.992 15.0083C331.499 15.0083 372.065 56.6305 377.401 121.402Z" stroke="black" stroke-width="30"/>
</svg>
